<?xml version="1.0" encoding="UTF-8" standalone="no"?>
<!-- Created with Inkscape (http://www.inkscape.org/) -->

<svg
   width="512"
   height="512"
   viewBox="0 0 135.46667 135.46667"
   version="1.1"
   id="svg1"
   xml:space="preserve"
   xmlns:xlink="http://www.w3.org/1999/xlink"
   xmlns="http://www.w3.org/2000/svg"
   xmlns:svg="http://www.w3.org/2000/svg"><defs
     id="defs1"><linearGradient
       id="linearGradient2"><stop
         style="stop-color:#1d4ed8;stop-opacity:1;"
         offset="0"
         id="stop2" /><stop
         style="stop-color:#3b82f6;stop-opacity:1;"
         offset="1"
         id="stop3" /></linearGradient><linearGradient
       xlink:href="#linearGradient2"
       id="linearGradient3"
       x1="67.733337"
       y1="0"
       x2="67.733337"
       y2="135.46667"
       gradientUnits="userSpaceOnUse" /></defs><g
     id="layer1"><path
       id="path1"
       style="fill:url(#linearGradient3);fill-opacity:1;stroke-width:0.27923"
       d="M 67.733335,0 A 67.733337,67.733337 0 0 0 0,67.733335 67.733337,67.733337 0 0 0 67.733335,135.46667 67.733337,67.733337 0 0 0 88.970282,131.9196 c -0.0077,-0.16705 -0.02274,-0.33109 -0.02274,-0.50126 v -27.82259 l -19.78484,19.78484 c -1.957876,1.95787 -4.250457,2.91077 -6.878133,2.85925 -2.627676,-0.0516 -4.920774,-1.05597 -6.87865,-3.01377 -1.957876,-1.95787 -2.936772,-4.22497 -2.936772,-6.80113 0,-2.57616 0.978896,-4.84326 2.936772,-6.80114 L 74.881736,90.147988 H 47.523199 c -2.6792,0 -4.972298,-0.952904 -6.87865,-2.859257 -1.906353,-1.906353 -2.859258,-4.19945 -2.859258,-6.87865 0,-2.679199 0.952905,-4.97178 2.859258,-6.878133 1.906352,-1.906354 4.19945,-2.859774 6.87865,-2.859774 h 27.822075 l -19.78484,-19.78484 c -1.854831,-1.85483 -2.782259,-4.095944 -2.782259,-6.72362 0,-2.627674 0.927428,-4.920257 2.782259,-6.878134 1.85483,-1.957876 4.121938,-2.962763 6.801136,-3.014286 2.6792,-0.05152 4.99777,0.901902 6.955648,2.859774 l 19.630327,19.630327 v -27.66808 c 0,-2.679199 0.953419,-4.97178 2.859773,-6.878133 1.906354,-1.906353 4.198929,-2.859774 6.878134,-2.859774 2.679198,0 4.971778,0.953421 6.878128,2.859774 1.90636,1.906353 2.85978,4.198934 2.85978,6.878133 v 27.358538 l 19.3213,-19.320785 c 0.0874,-0.08744 0.17933,-0.162449 0.2682,-0.24598 A 67.733337,67.733337 0 0 0 67.733335,0 Z m 67.018645,57.945818 -12.72687,12.726356 h 13.23124 a 67.733337,67.733337 0 0 0 0.21032,-2.938839 67.733337,67.733337 0 0 0 -0.71469,-9.787517 z m -12.41733,32.20217 6.55619,6.556189 a 67.733337,67.733337 0 0 0 2.58951,-6.556189 z M 108.42336,103.75026 V 121.667 a 67.733337,67.733337 0 0 0 9.45679,-8.53488 z" /></g></svg>
