<?xml version="1.0" encoding="UTF-8" standalone="no"?>
<!-- Created with Inkscape (http://www.inkscape.org/) -->

<svg
   width="512"
   height="512"
   viewBox="0 0 135.46666 135.46667"
   version="1.1"
   id="svg1"
   xml:space="preserve"
   xmlns:xlink="http://www.w3.org/1999/xlink"
   xmlns="http://www.w3.org/2000/svg"
   xmlns:svg="http://www.w3.org/2000/svg"><defs
     id="defs1"><linearGradient
       id="linearGradient1"><stop
         style="stop-color:#1d4ed8;stop-opacity:1;"
         offset="0"
         id="stop1" /><stop
         style="stop-color:#3b82f6;stop-opacity:1;"
         offset="1"
         id="stop2" /></linearGradient><linearGradient
       xlink:href="#linearGradient1"
       id="linearGradient2"
       x1="67.73333"
       y1="0"
       x2="67.73333"
       y2="135.46666"
       gradientUnits="userSpaceOnUse" /></defs><g
     id="layer1"><path
       id="path1"
       style="fill:url(#linearGradient2);stroke-width:0.278649"
       d="M 67.733332,0 A 67.73333,67.73333 0 0 0 0,67.733332 67.73333,67.73333 0 0 0 67.733332,135.46666 67.73333,67.73333 0 0 0 86.345116,132.82548 V 106.38214 L 61.196781,131.53047 48.184138,118.51783 73.039985,93.661982 H 37.949104 V 75.239334 H 73.478718 L 48.330383,50.090999 61.196781,36.932112 86.345116,62.080448 v -35.38337 h 18.422644 v 35.090881 l 23.8001,-23.800097 A 67.73333,67.73333 0 0 0 67.733332,0 Z M 134.7711,58.102396 117.63416,75.239334 h 17.29559 a 67.73333,67.73333 0 0 0 0.53691,-7.506002 67.73333,67.73333 0 0 0 -0.69556,-9.630936 z m -16.84445,35.559586 8.16591,8.165908 a 67.73333,67.73333 0 0 0 4.07675,-8.165908 z m -13.15889,12.866398 v 17.87539 a 67.73333,67.73333 0 0 0 9.8578,-8.01708 z" /></g></svg>
